<svg xmlns="http://www.w3.org/2000/svg" viewBox="0 0 32 32"><g fill="none" fill-rule="evenodd"><path fill="#060606" d="M15.8 4.07c.26 0 .47.2.47.47v1.62h-.95V5.01h-1.35V6.1l2.15 2.02c.1.1.15.22.15.35v1.89c0 .26-.21.47-.47.47h-2.3a.47.47 0 0 1-.47-.47V8.59h.94v1.28h1.35V8.66l-2.14-2.02a.47.47 0 0 1-.15-.34V4.54c0-.26.21-.47.47-.47h2.3zm4.05 0c.26 0 .47.2.47.47V6.3h-.94V5h-1.35v4.86h1.35v-1.4h.94v1.89c0 .26-.21.47-.47.47h-2.3a.47.47 0 0 1-.47-.47V4.54c0-.26.21-.47.47-.47h2.3zm2.23 5.8h1.35V5.01h-1.35v4.86zm1.82-5.8c.26 0 .47.2.47.47v5.8c0 .27-.21.48-.47.48h-2.3a.47.47 0 0 1-.47-.47V4.54c0-.26.21-.47.47-.47h2.3zM32 5h-1.82v1.9h1.55v.94h-1.55v2.02H32v.95h-2.3a.47.47 0 0 1-.47-.47v-5.8c0-.26.21-.47.47-.47H32V5zM10.78 6.38l-.47 2.14h.92l-.45-2.14zm-.99 4.44h-.97l1.52-6.79h.92l1.4 6.79h-.96l-.28-1.35H10.1l-.3 1.35zm16.34-5.8v5.73h-.95V4.54c0-.26.21-.47.47-.47h2.3c.26 0 .47.2.47.47v2.97c0 .26-.21.47-.47.47h-.5l1.25 2.84h-1.03L26.3 7.7a.47.47 0 0 1 .43-.66h.75V5h-1.35z"/><path fill="#B2B2B0" d="M11.91 20H5v-6.91c0-.6.49-1.09 1.09-1.09H13v6.91c0 .6-.49 1.09-1.09 1.09"/><path fill="#D11D00" d="M27.83 28H14V14.17c0-1.2.97-2.17 2.17-2.17H30v13.83c0 1.2-.97 2.17-2.17 2.17"/><path fill="#B2B2B0" d="M6.05 11H0V4.95C0 4.43.43 4 .95 4H7v6.05c0 .52-.43.95-.95.95"/></g></svg>